<svg xmlns="http://www.w3.org/2000/svg" width="1590" height="450" viewBox="0 0 1590 450">
  <rect width="100%" height="100%" fill="#1e1e2e"/>
  <polygon points="181.96,180.00 155.98,135.00 104.02,135.00 78.04,180.00 104.02,225.00 155.98,225.00" fill="none" stroke="#a6e3a1" stroke-width="4"/>
  <line x1="130" y1="135.0" x2="130" y2="225.0" stroke="#f38ba8" stroke-width="2"/>
  <line x1="120" y1="135.0" x2="140" y2="135.0" stroke="#f38ba8" stroke-width="2"/>
  <line x1="120" y1="225.0" x2="140" y2="225.0" stroke="#f38ba8" stroke-width="2"/>
  <text x="130" y="310" font-family="monospace" font-size="22" font-weight="bold" fill="#cdd6f4" text-anchor="middle">9mm</text>
  <text x="130" y="340" font-family="monospace" font-size="16" fill="#bac2de" text-anchor="middle">Flat: 9.0 mm</text>
  <polygon points="408.89,180.00 379.44,129.00 320.56,129.00 291.11,180.00 320.56,231.00 379.44,231.00" fill="none" stroke="#a6e3a1" stroke-width="4"/>
  <line x1="350" y1="129.0" x2="350" y2="231.0" stroke="#f38ba8" stroke-width="2"/>
  <line x1="340" y1="129.0" x2="360" y2="129.0" stroke="#f38ba8" stroke-width="2"/>
  <line x1="340" y1="231.0" x2="360" y2="231.0" stroke="#f38ba8" stroke-width="2"/>
  <text x="350" y="310" font-family="monospace" font-size="22" font-weight="bold" fill="#cdd6f4" text-anchor="middle">M6</text>
  <text x="350" y="340" font-family="monospace" font-size="16" fill="#bac2de" text-anchor="middle">Flat: 10.2 mm</text>
  <polygon points="639.86,180.00 604.93,119.50 535.07,119.50 500.14,180.00 535.07,240.50 604.93,240.50" fill="none" stroke="#a6e3a1" stroke-width="4"/>
  <line x1="570" y1="119.5" x2="570" y2="240.5" stroke="#f38ba8" stroke-width="2"/>
  <line x1="560" y1="119.5" x2="580" y2="119.5" stroke="#f38ba8" stroke-width="2"/>
  <line x1="560" y1="240.5" x2="580" y2="240.5" stroke="#f38ba8" stroke-width="2"/>
  <text x="570" y="310" font-family="monospace" font-size="22" font-weight="bold" fill="#cdd6f4" text-anchor="middle">M8</text>
  <text x="570" y="340" font-family="monospace" font-size="16" fill="#bac2de" text-anchor="middle">Flat: 12.1 mm</text>
  <polygon points="871.41,180.00 830.70,109.50 749.30,109.50 708.59,180.00 749.30,250.50 830.70,250.50" fill="none" stroke="#a6e3a1" stroke-width="4"/>
  <line x1="790" y1="109.5" x2="790" y2="250.5" stroke="#f38ba8" stroke-width="2"/>
  <line x1="780" y1="109.5" x2="800" y2="109.5" stroke="#f38ba8" stroke-width="2"/>
  <line x1="780" y1="250.5" x2="800" y2="250.5" stroke="#f38ba8" stroke-width="2"/>
  <text x="790" y="310" font-family="monospace" font-size="22" font-weight="bold" fill="#cdd6f4" text-anchor="middle">M10</text>
  <text x="790" y="340" font-family="monospace" font-size="16" fill="#bac2de" text-anchor="middle">Flat: 14.1 mm</text>
  <polygon points="1096.89,180.00 1053.45,104.75 966.55,104.75 923.11,180.00 966.55,255.25 1053.45,255.25" fill="none" stroke="#a6e3a1" stroke-width="4"/>
  <line x1="1010" y1="104.75" x2="1010" y2="255.25" stroke="#f38ba8" stroke-width="2"/>
  <line x1="1000" y1="104.75" x2="1020" y2="104.75" stroke="#f38ba8" stroke-width="2"/>
  <line x1="1000" y1="255.25" x2="1020" y2="255.25" stroke="#f38ba8" stroke-width="2"/>
  <text x="1010" y="310" font-family="monospace" font-size="22" font-weight="bold" fill="#cdd6f4" text-anchor="middle">M12</text>
  <text x="1010" y="340" font-family="monospace" font-size="16" fill="#bac2de" text-anchor="middle">Flat: 15.05 mm</text>
  <circle cx="1230" cy="180" r="41.0" fill="none" stroke="#89b4fa" stroke-width="4"/>
  <circle cx="1230" cy="180" r="29.0" fill="none" stroke="#89b4fa" stroke-width="4"/>
  <rect x="1189.0" y="174.0" width="12.0" height="12.0" fill="#1e1e2e" stroke="#89b4fa" stroke-width="4"/>
  <rect x="1259.0" y="174.0" width="12.0" height="12.0" fill="#1e1e2e" stroke="#89b4fa" stroke-width="4"/>
  <line x1="1189.0" y1="119.0" x2="1271.0" y2="119.0" stroke="#f38ba8" stroke-width="2"/>
  <line x1="1189.0" y1="114.0" x2="1189.0" y2="124.0" stroke="#f38ba8" stroke-width="2"/>
  <line x1="1271.0" y1="114.0" x2="1271.0" y2="124.0" stroke="#f38ba8" stroke-width="2"/>
  <text x="1230" y="109.0" font-family="monospace" font-size="14" fill="#f38ba8" text-anchor="middle">Outer: 8.2mm</text>
  <line x1="1201.0" y1="241.0" x2="1259.0" y2="241.0" stroke="#fab387" stroke-width="2"/>
  <line x1="1201.0" y1="236.0" x2="1201.0" y2="246.0" stroke="#fab387" stroke-width="2"/>
  <line x1="1259.0" y1="236.0" x2="1259.0" y2="246.0" stroke="#fab387" stroke-width="2"/>
  <text x="1230" y="261.0" font-family="monospace" font-size="14" fill="#fab387" text-anchor="middle">Inner: 5.8mm</text>
  <text x="1230" y="310" font-family="monospace" font-size="22" font-weight="bold" fill="#cdd6f4" text-anchor="middle">Spanner M6</text>
  <text x="1230" y="340" font-family="monospace" font-size="16" fill="#bac2de" text-anchor="middle">Prong: 1.2 mm</text>
  <circle cx="1450" cy="180" r="85.0" fill="none" stroke="#89b4fa" stroke-width="4"/>
  <circle cx="1450" cy="180" r="62.5" fill="none" stroke="#89b4fa" stroke-width="4"/>
  <rect x="1365.0" y="170.0" width="22.5" height="20.0" fill="#1e1e2e" stroke="#89b4fa" stroke-width="4"/>
  <rect x="1512.5" y="170.0" width="22.5" height="20.0" fill="#1e1e2e" stroke="#89b4fa" stroke-width="4"/>
  <line x1="1365.0" y1="75.0" x2="1535.0" y2="75.0" stroke="#f38ba8" stroke-width="2"/>
  <line x1="1365.0" y1="70.0" x2="1365.0" y2="80.0" stroke="#f38ba8" stroke-width="2"/>
  <line x1="1535.0" y1="70.0" x2="1535.0" y2="80.0" stroke="#f38ba8" stroke-width="2"/>
  <text x="1450" y="65.0" font-family="monospace" font-size="14" fill="#f38ba8" text-anchor="middle">Outer: 17.0mm</text>
  <line x1="1387.5" y1="285.0" x2="1512.5" y2="285.0" stroke="#fab387" stroke-width="2"/>
  <line x1="1387.5" y1="280.0" x2="1387.5" y2="290.0" stroke="#fab387" stroke-width="2"/>
  <line x1="1512.5" y1="280.0" x2="1512.5" y2="290.0" stroke="#fab387" stroke-width="2"/>
  <text x="1450" y="305.0" font-family="monospace" font-size="14" fill="#fab387" text-anchor="middle">Inner: 12.5mm</text>
  <text x="1450" y="310" font-family="monospace" font-size="22" font-weight="bold" fill="#cdd6f4" text-anchor="middle">Spanner M12</text>
  <text x="1450" y="340" font-family="monospace" font-size="16" fill="#bac2de" text-anchor="middle">Prong: 2.0 mm</text>
</svg>
